bicep_curl
version=1
nRows=272
nColumns=3
inDegrees=yes

# SIMM Motion File Header:
name bicep_curl
datacolumns 3
datarows 272
otherdata 1
range 0.0000 0.2710
endheader
time	/jointset/r_shoulder/r_shoulder_elev/value	/jointset/r_elbow/r_elbow_flex/value
0.0000	0.0000	63.1400
0.0010	0.0000	63.3127
0.0020	0.0000	63.4845
0.0030	0.0000	63.6552
0.0040	0.0000	63.8250
0.0050	0.0000	63.9937
0.0060	0.0000	64.1615
0.0070	0.0000	64.3283
0.0080	0.0000	64.4942
0.0090	0.0000	64.6590
0.0100	0.0000	64.8228
0.0110	0.0000	64.9857
0.0120	0.0000	65.1476
0.0130	0.0000	65.3085
0.0140	0.0000	65.4684
0.0150	0.0000	65.6273
0.0160	0.0000	65.7852
0.0170	0.0000	65.9421
0.0180	0.0000	66.0981
0.0190	0.0000	66.2531
0.0200	0.0000	66.4070
0.0210	0.0000	66.5600
0.0220	0.0000	66.7120
0.0230	0.0000	66.8631
0.0240	0.0000	67.0131
0.0250	0.0000	67.1622
0.0260	0.0000	67.3102
0.0270	0.0000	67.4573
0.0280	0.0000	67.6034
0.0290	0.0000	67.7485
0.0300	0.0000	67.8926
0.0310	0.0000	68.0357
0.0320	0.0000	68.1779
0.0330	0.0000	68.3190
0.0340	0.0000	68.4592
0.0350	0.0000	68.5984
0.0360	0.0000	68.7366
0.0370	0.0000	68.8738
0.0380	0.0000	69.0100
0.0390	0.0000	69.1453
0.0400	0.0000	69.2795
0.0410	0.0000	69.4128
0.0420	0.0000	69.5451
0.0430	0.0000	69.6764
0.0440	0.0000	69.8067
0.0450	0.0000	69.9360
0.0460	0.0000	70.0643
0.0470	0.0000	70.1917
0.0480	0.0000	70.3181
0.0490	0.0000	70.4434
0.0500	0.0000	70.5678
0.0510	0.0000	70.6912
0.0520	0.0000	70.8136
0.0530	0.0000	70.9351
0.0540	0.0000	71.0555
0.0550	0.0000	71.1750
0.0560	0.0000	71.2934
0.0570	0.0000	71.4109
0.0580	0.0000	71.5274
0.0590	0.0000	71.6429
0.0600	0.0000	71.7575
0.0610	0.0000	71.8710
0.0620	0.0000	71.9836
0.0630	0.0000	72.0951
0.0640	0.0000	72.2057
0.0650	0.0000	72.3153
0.0660	0.0000	72.4239
0.0670	0.0000	72.5315
0.0680	0.0000	72.6382
0.0690	0.0000	72.7438
0.0700	0.0000	72.8485
0.0710	0.0000	72.9522
0.0720	0.0000	73.0548
0.0730	0.0000	73.1566
0.0740	0.0000	73.2573
0.0750	0.0000	73.3570
0.0760	0.0000	73.4557
0.0770	0.0000	73.5535
0.0780	0.0000	73.6503
0.0790	0.0000	73.7461
0.0800	0.0000	73.8409
0.0810	0.0000	73.9347
0.0820	0.0000	74.0275
0.0830	0.0000	74.1193
0.0840	0.0000	74.2102
0.0850	0.0000	74.3001
0.0860	0.0000	74.3889
0.0870	0.0000	74.4768
0.0880	0.0000	74.5637
0.0890	0.0000	74.6497
0.0900	0.0000	74.7346
0.0910	0.0000	74.8185
0.0920	0.0000	74.9015
0.0930	0.0000	74.9835
0.0940	0.0000	75.0645
0.0950	0.0000	75.1445
0.0960	0.0000	75.2235
0.0970	0.0000	75.3015
0.0980	0.0000	75.3786
0.0990	0.0000	75.4546
0.1000	0.0000	75.5297
0.1010	0.0000	75.6038
0.1020	0.0000	75.6769
0.1030	0.0000	75.7490
0.1040	0.0000	75.8201
0.1050	0.0000	75.8903
0.1060	0.0000	75.9594
0.1070	0.0000	76.0276
0.1080	0.0000	76.0948
0.1090	0.0000	76.1610
0.1100	0.0000	76.2262
0.1110	0.0000	76.2904
0.1120	0.0000	76.3536
0.1130	0.0000	76.4159
0.1140	0.0000	76.4771
0.1150	0.0000	76.5374
0.1160	0.0000	76.5967
0.1170	0.0000	76.6550
0.1180	0.0000	76.7123
0.1190	0.0000	76.7686
0.1200	0.0000	76.8240
0.1210	0.0000	76.8783
0.1220	0.0000	76.9317
0.1230	0.0000	76.9841
0.1240	0.0000	77.0355
0.1250	0.0000	77.0859
0.1260	0.0000	77.1353
0.1270	0.0000	77.1838
0.1280	0.0000	77.2312
0.1290	0.0000	77.2777
0.1300	0.0000	77.3232
0.1310	0.0000	77.3677
0.1320	0.0000	77.4112
0.1330	0.0000	77.4537
0.1340	0.0000	77.4952
0.1350	0.0000	77.5358
0.1360	0.0000	77.5753
0.1370	0.0000	77.6139
0.1380	0.0000	77.6515
0.1390	0.0000	77.6881
0.1400	0.0000	77.7237
0.1410	0.0000	77.7584
0.1420	0.0000	77.7920
0.1430	0.0000	77.8247
0.1440	0.0000	77.8563
0.1450	0.0000	77.8870
0.1460	0.0000	77.9167
0.1470	0.0000	77.9454
0.1480	0.0000	77.9732
0.1490	0.0000	77.9999
0.1500	0.0000	78.0256
0.1510	0.0000	78.0504
0.1520	0.0000	78.0742
0.1530	0.0000	78.0970
0.1540	0.0000	78.1188
0.1550	0.0000	78.1396
0.1560	0.0000	78.1594
0.1570	0.0000	78.1783
0.1580	0.0000	78.1962
0.1590	0.0000	78.2130
0.1600	0.0000	78.2289
0.1610	0.0000	78.2438
0.1620	0.0000	78.2577
0.1630	0.0000	78.2707
0.1640	0.0000	78.2826
0.1650	0.0000	78.2936
0.1660	0.0000	78.3035
0.1670	0.0000	78.3125
0.1680	0.0000	78.3205
0.1690	0.0000	78.3275
0.1700	0.0000	78.3336
0.1710	0.0000	78.3386
0.1720	0.0000	78.3427
0.1730	0.0000	78.3457
0.1740	0.0000	78.3478
0.1750	0.0000	78.3489
0.1760	0.0000	78.3490
0.1770	0.0000	78.3481
0.1780	0.0000	78.3463
0.1790	0.0000	78.3434
0.1800	0.0000	78.3396
0.1810	0.0000	78.3347
0.1820	0.0000	78.3289
0.1830	0.0000	78.3221
0.1840	0.0000	78.3143
0.1850	0.0000	78.3056
0.1860	0.0000	78.2958
0.1870	0.0000	78.2851
0.1880	0.0000	78.2733
0.1890	0.0000	78.2606
0.1900	0.0000	78.2469
0.1910	0.0000	78.2322
0.1920	0.0000	78.2166
0.1930	0.0000	78.1999
0.1940	0.0000	78.1823
0.1950	0.0000	78.1636
0.1960	0.0000	78.1440
0.1970	0.0000	78.1234
0.1980	0.0000	78.1018
0.1990	0.0000	78.0792
0.2000	0.0000	78.0557
0.2010	0.0000	78.0311
0.2020	0.0000	78.0056
0.2030	0.0000	77.9790
0.2040	0.0000	77.9515
0.2050	0.0000	77.9230
0.2060	0.0000	77.8935
0.2070	0.0000	77.8631
0.2080	0.0000	77.8316
0.2090	0.0000	77.7992
0.2100	0.0000	77.7657
0.2110	0.0000	77.7313
0.2120	0.0000	77.6959
0.2130	0.0000	77.6595
0.2140	0.0000	77.6222
0.2150	0.0000	77.5838
0.2160	0.0000	77.5445
0.2170	0.0000	77.5041
0.2180	0.0000	77.4628
0.2190	0.0000	77.4205
0.2200	0.0000	77.3772
0.2210	0.0000	77.3329
0.2220	0.0000	77.2877
0.2230	0.0000	77.2414
0.2240	0.0000	77.1942
0.2250	0.0000	77.1459
0.2260	0.0000	77.0967
0.2270	0.0000	77.0465
0.2280	0.0000	76.9953
0.2290	0.0000	76.9432
0.2300	0.0000	76.8900
0.2310	0.0000	76.8359
0.2320	0.0000	76.7807
0.2330	0.0000	76.7246
0.2340	0.0000	76.6675
0.2350	0.0000	76.6094
0.2360	0.0000	76.5504
0.2370	0.0000	76.4903
0.2380	0.0000	76.4292
0.2390	0.0000	76.3672
0.2400	0.0000	76.3042
0.2410	0.0000	76.2402
0.2420	0.0000	76.1752
0.2430	0.0000	76.1092
0.2440	0.0000	76.0422
0.2450	0.0000	75.9743
0.2460	0.0000	75.9054
0.2470	0.0000	75.8354
0.2480	0.0000	75.7645
0.2490	0.0000	75.6926
0.2500	0.0000	75.6197
0.2510	0.0000	75.5459
0.2520	0.0000	75.4710
0.2530	0.0000	75.3952
0.2540	0.0000	75.3183
0.2550	0.0000	75.2405
0.2560	0.0000	75.1617
0.2570	0.0000	75.0819
0.2580	0.0000	75.0011
0.2590	0.0000	74.9194
0.2600	0.0000	74.8366
0.2610	0.0000	74.7529
0.2620	0.0000	74.6682
0.2630	0.0000	74.5825
0.2640	0.0000	74.4958
0.2650	0.0000	74.4081
0.2660	0.0000	74.3194
0.2670	0.0000	74.2298
0.2680	0.0000	74.1391
0.2690	0.0000	74.0475
0.2700	0.0000	73.9549
0.2710	0.0000	73.8613
